<mxfile host="app.diagrams.net" modified="2023-11-07T06:09:04.810Z" agent="Mozilla/5.0 (Windows NT 10.0; Win64; x64) AppleWebKit/537.36 (KHTML, like Gecko) Chrome/119.0.0.0 Safari/537.36" version="22.0.8" etag="d0OqmJ8k4SylbE8Td7ZM" type="github">
  <diagram name="Page-1" id="ZJK_n9Mcy10IBWjjphH1">
    <mxGraphModel>
      <root>
        <mxCell id="0" />
        <mxCell id="1" parent="0" />
      </root>
    </mxGraphModel>
  </diagram>
</mxfile>
